<?xml version="1.0" standalone="no"?><!DOCTYPE svg PUBLIC "-//W3C//DTD SVG 1.1//EN" "http://www.w3.org/Graphics/SVG/1.1/DTD/svg11.dtd"><svg class="icon" width="200px" height="200.00px" viewBox="0 0 1024 1024" version="1.1" xmlns="http://www.w3.org/2000/svg"><path fill="#2C7ADE" d="M995.881499 860.753623l-202.173047-202.207163 26.951858-26.951857-26.951858-26.951858-80.855572 80.855573-134.82752-134.82752 161.984075-162.052307c21.595602 7.676162 44.14646 11.599534 67.277295 11.599533 53.391971 0 103.611128-20.810928 141.377844-58.577644a199.102582 199.102582 0 0 0 42.099484-220.732301l-11.08779-25.82602-86.894153 86.894153-69.938364 0.955256 0.92114-66.731435L912.330741 27.634183l-25.757788-11.156022A199.409629 199.409629 0 0 0 806.877334 0c-53.426087 0-103.611128 20.810928-141.309611 58.577645a198.897884 198.897884 0 0 0-46.909879 208.791604l-161.915842 161.984074-229.193137-229.193136 26.951858-26.951858L106.33374 24.973113 25.375819 105.828686l148.269332 148.269332 26.951857-26.951858 229.193137 229.159021-161.984075 161.984074a199.750791 199.750791 0 0 0-67.481992-11.667766c-53.391971 0-103.611128 20.810928-141.343728 58.543528a199.034349 199.034349 0 0 0-42.031251 221.073464l11.156022 25.689555 88.56585-88.531734 66.697318-0.92114-0.955256 69.972481-86.860036 86.894153 25.791904 11.121905c25.177811 10.848976 51.890855 16.375812 79.388572 16.375813a198.488489 198.488489 0 0 0 141.343728-58.543529 199.068466 199.068466 0 0 0 46.978111-208.586906l162.052307-162.052307 134.793404 134.759287-80.889689 80.923804 26.951858 26.951858 26.951857-26.951858 202.173047 202.207163c17.979277 18.013393 41.963018 27.941229 67.41376 27.94123a95.423222 95.423222 0 0 0 67.379643-162.734633z"  /></svg>