<?xml version="1.0" standalone="no"?><!DOCTYPE svg PUBLIC "-//W3C//DTD SVG 1.1//EN" "http://www.w3.org/Graphics/SVG/1.1/DTD/svg11.dtd"><svg class="icon" width="200px" height="200.00px" viewBox="0 0 1024 1024" version="1.1" xmlns="http://www.w3.org/2000/svg"><path fill="#2C7ADE" d="M906.61888 822.94272l-60.32896-1.72032 0.90112-609.40288 34.51904 0 0.8704-63.10912-241.08032 0.70144 2.3296-3.11296c9.85088-64.72192-37.62176-71.73632-37.62176-71.73632L327.68 75.31008c-46.67392 5.46816-37.62688 73.40032-37.62688 73.40032L150.08256 148.7104 149.22752 224.256l34.70336 1.55136 1.46944 596.18816L123.73504 821.99552l0.76288 100.75136 782.82752 0.70656L906.61888 822.94272zM289.19296 284.37504l100.4032 1.1776 0 87.32672-100.4032-0.37888L289.19296 284.37504zM292.96128 463.68768l100.352 1.18272 0 87.31648-100.352-0.41472L292.96128 463.68768zM398.58688 720.34304l-100.28544-0.37888L298.30144 631.9616l100.28544 0.98304L398.58688 720.34304zM471.18848 284.37504l100.36224 1.1776 0 87.32672-100.36224-0.37888L471.18848 284.37504zM474.91072 463.68768l100.23936 1.18272 0 87.31648-100.23936-0.45568L474.91072 463.68768zM580.59776 771.456l-100.46976-0.67072L480.128 631.9616l100.46976 1.84832L580.59776 771.456zM656.96768 284.37504l100.36224 1.1776 0 87.32672-100.36224-0.37888L656.96768 284.37504zM660.80256 463.68768l100.16768 1.18272 0 87.31648-100.16768-0.45568L660.80256 463.68768zM666.01984 631.9616l100.39808 0.98304 0 87.45984-100.39808-0.37888L666.01984 631.9616z" /></svg>