<?xml version="1.0" standalone="no"?><!DOCTYPE svg PUBLIC "-//W3C//DTD SVG 1.1//EN" "http://www.w3.org/Graphics/SVG/1.1/DTD/svg11.dtd"><svg class="icon" width="200px" height="200.00px" viewBox="0 0 1024 1024" version="1.1" xmlns="http://www.w3.org/2000/svg"><path fill="#1296db" d="M308.366543 283.961227H896.447687c27.935645 0 50.447886-22.61457 50.447886-50.345558s-22.716898-50.345558-50.447886-50.345558H308.366543c-27.935645 0-50.447886 22.61457-50.447886 50.345558-0.102328 27.62866 22.512241 50.345558 50.447886 50.345558zM127.552313 461.398621c-27.935645 0-50.447886 22.61457-50.447886 50.345558s22.716898 50.345558 50.447886 50.345558c27.935645 0 50.447886-22.61457 50.447887-50.345558 0-13.507345-5.116419-25.991406-14.632957-35.405616-9.311882-9.618867-22.102928-14.939942-35.81493-14.939942zM127.552313 740.141101c-27.935645 0-50.447886 22.61457-50.447886 50.345558 0 27.833317 22.716898 50.345558 50.447886 50.345558 27.935645 0 50.447886-22.61457 50.447887-50.345558 0-13.507345-5.116419-25.991406-14.632957-35.405616-9.311882-9.516538-22.102928-14.939942-35.81493-14.939942zM896.550015 461.705606H308.366543C280.430898 461.705606 257.918657 484.320176 257.918657 512.153493S280.533227 562.499051 308.366543 562.499051H896.447687c27.935645 0 50.447886-22.61457 50.447886-50.345558 0.102328-27.730988-22.61457-50.447886-50.345558-50.447887zM127.552313 182.758469c-27.935645 0-50.447886 22.61457-50.447886 50.345558s22.716898 50.345558 50.447886 50.345558c27.935645 0 50.447886-22.61457 50.447887-50.345558 0.306985-27.833317-22.409913-50.345558-50.447887-50.345558zM896.550015 740.550415H308.366543c-27.935645 0-50.447886 22.512241-50.447886 50.345558s22.716898 50.345558 50.447886 50.345558H896.447687c27.935645 0 50.447886-22.61457 50.447886-50.345558 0.102328-27.833317-22.61457-50.345558-50.345558-50.345558z" /></svg>