<?xml version="1.0" standalone="no"?><!DOCTYPE svg PUBLIC "-//W3C//DTD SVG 1.1//EN" "http://www.w3.org/Graphics/SVG/1.1/DTD/svg11.dtd"><svg class="icon" width="200px" height="200.00px" viewBox="0 0 1024 1024" version="1.1" xmlns="http://www.w3.org/2000/svg"><path fill="#2C7ADE" d="M580.342 1021.502c-58.529 4.82-127.266 0-127.266 0s-350.408-8.028-350.408-287.214 337.507-459.131 337.507-459.131h154.35S915.15 490.655 915.15 739.447c0 248.835-334.808 284.464-334.808 282.055zM440.175 256.96V202.33h154.693v54.63H440.175z m152.285-72.826H442.583L362.817 4.34s47.156 36.395 76.172 36.395c28.997 0 78.542-37.58 78.542-37.58s45.914 37.58 74.929 37.58c28.977 0 78.561-38.688 78.561-38.688L592.46 184.133zM470.91 862.855h69.863v-67.818h93.394V740.14h-93.394v-29.859h93.394v-54.896h-65.83L646.63 498.57h-76.573l-50.653 105.893c-5.81 12.388-10.284 24.047-13.419 35.019-2.676-10.13-7.147-21.752-13.456-35.019L442.85 498.571h-76.516l77.28 156.814h-64.874v54.896h92.17v29.859h-92.17v54.897h92.17v67.818z" /></svg>