<?xml version="1.0" standalone="no"?><!DOCTYPE svg PUBLIC "-//W3C//DTD SVG 1.1//EN" "http://www.w3.org/Graphics/SVG/1.1/DTD/svg11.dtd"><svg class="icon" width="200px" height="200.00px" viewBox="0 0 1024 1024" version="1.1" xmlns="http://www.w3.org/2000/svg"><path fill="#2C7ADE" d="M120.1 513.9V163.5c0-60.2 39.3-99.2 99.8-99.3 131.2 0 262.3 0.2 393.5-0.3 16.2-0.1 28.6 4.7 40 16.2 78.8 79.3 157.9 158.4 237.2 237.2 11.8 11.8 17.5 24.3 17.4 41.3-0.4 169.3-0.2 338.6-0.3 507.8-0.1 57.8-40 97.4-97.8 97.4-197.4 0.1-394.8 0.1-592.2 0-57.7 0-97.6-40-97.6-97.7-0.1-117.3 0-234.7 0-352.2z m69.8-0.9v343.1c0 34.1 4.6 38.6 39.4 38.6 55 0.1 110 0 165 0 136.2 0 272.4 0.1 408.7 0 27.9 0 36.1-6.8 36.1-30.9 0.2-159.3 0-318.7 0.3-478 0-12.6-4.4-16-16.3-15.9-44.4 0.5-88.7 0.6-133.1 0.1-57.2-0.6-87.3-31.2-87.7-88.6-0.3-42.5-0.8-85 0.3-127.5 0.4-16.3-3.9-21.2-20.7-21.1-118.1 0.8-236.2 0.4-354.3 0.4-32.2 0-37.6 5.7-37.6 38.7-0.1 113.6-0.1 227.3-0.1 341.1z m605.5-185.9C744.5 276.8 694 226.8 644.6 177.9c0 37.1-0.8 77.5 0.4 117.8 0.5 17.4 12.4 30.2 29.6 30.9 40.7 1.6 81.6 0.5 120.8 0.5z"  /><path fill="#2C7ADE" d="M583.6 419.2h123.7c14.2 0 27.4 2.2 27.7 20.1 0.3 17.5-12.4 21.6-26.7 21.6-83.1 0.2-166.1 0.1-249.2 0.1-1.9 0-3.8 0.1-5.6-0.2-12.9-2-23.3-7.2-22.3-22.4 0.9-14 10.6-19 23.2-19.1 43-0.1 86.1 0 129.2-0.1 0 0.1 0 0.1 0 0z m-0.3 146.3h123.6c14 0 27.1 1.6 28.1 19.7 0.8 14.3-8.5 21.8-28.4 21.8-82.4 0.2-164.9 0.2-247.3 0-19.5-0.1-29.6-8.2-28.3-22.1 1.6-17.7 14.6-19.4 28.6-19.4h123.7z m1.6 146.3h121.7c14 0 27 1.6 28.3 19.5 1.1 14.2-8.5 22-28.2 22-82.4 0.2-164.8 0.2-247.2 0-19.5-0.1-29.7-8.1-28.6-21.8 1.5-17.5 14.3-19.7 28.4-19.7h125.6z m-250.1-292c7.5 0 16-2.3 22.1 0.6 7.2 3.5 16.6 11 17.2 17.5 0.6 6.6-7.4 19.3-13.1 20.2-17.4 2.7-35.8 2.8-53.3 0.1-5.9-0.9-14.4-13.3-13.9-19.9 0.5-6.5 9.8-14.5 17.1-17.8 6.7-3 15.9-0.6 23.9-0.7z m-4.5 187.9c-6.5-0.8-16.2 0.3-23.3-3.5-6.4-3.5-14.1-13-13.3-18.8 1-7 9.5-17.1 16.1-18.4 15-2.8 31.2-3.1 46.2-0.3 7.3 1.3 17.6 11.5 17.9 18.1 0.3 6.8-8.6 16.4-15.9 20.3-6.8 3.9-16.8 1.9-27.7 2.6z m5.1 103.7c8.1 0.4 17.2-1.4 23.9 1.8 6.6 3.2 14.5 11.2 15 17.5 0.5 6.4-6.9 18.5-12 19.2-18.1 2.5-37 2.8-55 0.3-5.7-0.8-13.4-13.1-13.4-20.2 0-5.9 9-14.2 15.8-16.9 7.5-2.9 17.1-0.7 25.8-0.7-0.1-0.2-0.1-0.6-0.1-1z"  /></svg>