<?xml version="1.0" standalone="no"?><!DOCTYPE svg PUBLIC "-//W3C//DTD SVG 1.1//EN" "http://www.w3.org/Graphics/SVG/1.1/DTD/svg11.dtd"><svg class="icon" width="200px" height="200.00px" viewBox="0 0 1024 1024" version="1.1" xmlns="http://www.w3.org/2000/svg"><path fill="#333333" d="M513.365 413.189c16.384 0 30.72 6.144 42.325 18.432 12.288 12.288 17.749 26.624 17.749 43.691s-6.144 31.403-17.749 43.691c-12.971 11.605-27.307 17.749-43.691 17.749-8.875 0-17.067-1.365-24.576-4.779-7.509-3.413-14.336-7.509-19.797-12.971-5.461-5.461-10.24-12.288-12.971-19.797-3.413-7.509-4.779-15.701-4.779-24.576 0-17.067 6.144-31.403 17.749-43.691 13.653-11.605 28.672-17.749 45.739-17.749z" /></svg>