<?xml version="1.0" standalone="no"?><!DOCTYPE svg PUBLIC "-//W3C//DTD SVG 1.1//EN" "http://www.w3.org/Graphics/SVG/1.1/DTD/svg11.dtd"><svg class="icon" width="200px" height="188.93px" viewBox="0 0 1084 1024" version="1.1" xmlns="http://www.w3.org/2000/svg"><path fill="#2C7ADE" d="M1078.681591 161.139056s-49.874266-173.475708-290.330873-155.224619c-149.743268 13.733494-213.230558 109.62701-245.034437 182.631371C516.090232 115.481213 448.02511 15.0701 293.764246 1.336606 53.30764-16.854249 3.433373 156.621459 3.433373 156.621459c-9.095428 22.889156 0 36.562415 27.165814 31.924349 0 0 174.078054-77.762896 405.378999 22.648217-63.48729-9.095428-114.506014-22.587983-191.666564 23.06986-140.64784 82.160023-95.773047 292.137911-95.773047 292.137912 4.577831 22.889156 13.673259 27.406753 27.286283 4.577831 0 0-4.577831-150.586552 281.29568-246.480069-17.347571 59.029928-38.18875 129.504435-45.356669 260.213562-9.637539 174.559931 2.590089 256.057373 16.263347 288.041958l-129.504435 99.98947c-36.261242 36.50218-26.503233 91.315685 23.431268 91.315686h185.341928l190.582341-171.548201-32.707399-35.779365c-32.707399-28.069333-76.317265-54.452097-109.145133-38.489922-27.226049-54.75327-25.298541-100.290644-29.816138-191.546095 0.963754-123.842381 34.454203-227.325459 52.645059-291.294626 128.420212 256.298312 114.204841 422.786804 114.204841 422.786804-4.577831 22.828921 4.517597 31.924349 22.648218 9.095427 0 0 145.165436-123.240034 77.100314-273.886821-36.261242-86.737854-80.112046-130.588658-139.141974-157.99541 124.926604 17.889682 279.850049 244.733265 279.850049 244.733264 9.035193 22.828921 22.648217 18.25109 27.226048-4.577831 0 0 40.839073-187.148967-104.386598-269.369225-86.135508-50.175439-155.826964-50.597082-223.892085-41.441419 231.421414-95.893516 428.087451-27.045345 428.08745-27.045345 18.130621 0 31.743645-13.673259 18.130621-36.50218z m-236.360652 742.090529c-31.80388-36.50218-70.896149-35.538426-108.422318-8.432847l-134.684612 128.359977 225.397951-3.734546c92.15897 0 81.136034-19.576252 53.18717-62.222364l-35.538426-53.97022z" /></svg>