<?xml version="1.0" standalone="no"?><!DOCTYPE svg PUBLIC "-//W3C//DTD SVG 1.1//EN" "http://www.w3.org/Graphics/SVG/1.1/DTD/svg11.dtd"><svg class="icon" width="200px" height="200.00px" viewBox="0 0 1024 1024" version="1.1" xmlns="http://www.w3.org/2000/svg"><path fill="#2C7ADE" d="M512 992h-6.4l-480-128c-12.8 0-25.6-12.8-25.6-32V102.4c0-12.8 6.4-19.2 12.8-25.6 6.4-6.4 19.2-6.4 25.6-6.4l480 128c12.8 6.4 25.6 19.2 25.6 32V960c0 12.8-6.4 19.2-12.8 25.6-6.4 6.4-12.8 6.4-19.2 6.4z m-448-185.6l416 108.8V256L64 140.8v665.6z"  /><path fill="#2C7ADE" d="M512 992c-6.4 0-12.8 0-19.2-6.4-6.4-6.4-12.8-12.8-12.8-25.6V230.4c0-12.8 12.8-25.6 25.6-32l480-128c12.8 0 19.2 0 25.6 6.4s12.8 12.8 12.8 25.6V832c0 12.8-12.8 25.6-25.6 32l-480 128H512zM544 256v665.6l416-108.8V140.8L544 256z m448 576zM275.2 358.4l38.4 121.6h128L332.8 556.8l44.8 121.6-102.4-76.8-108.8 76.8 44.8-121.6-108.8-76.8h128z"  /><path fill="#2C7ADE" d="M659.2 428.8c-12.8 0-25.6-6.4-32-25.6-6.4-19.2 6.4-32 19.2-38.4l211.2-57.6c19.2-6.4 32 6.4 38.4 25.6 6.4 19.2-6.4 32-25.6 38.4l-211.2 57.6c6.4 0 0 0 0 0zM659.2 601.6c-19.2 0-32-6.4-32-25.6-6.4-19.2 6.4-32 25.6-38.4l211.2-57.6c19.2-6.4 32 6.4 38.4 25.6 6.4 19.2-6.4 32-25.6 38.4l-211.2 57.6h-6.4zM659.2 780.8c-12.8 0-25.6-6.4-32-25.6-6.4-19.2 6.4-32 25.6-38.4l211.2-57.6c19.2-6.4 32 6.4 38.4 25.6 6.4 19.2-6.4 32-25.6 38.4l-211.2 57.6c0-6.4-6.4 0-6.4 0z"  /></svg>